<svg xmlns="http://www.w3.org/2000/svg" viewBox="0 0 409.33 88.6"><defs><style>.cls-1{fill:#fac748;}.cls-2{fill:#fac248;}.cls-3{fill:#13293d;}.cls-4{fill:#13263d;}</style></defs><title>Fichier 1</title><g id="Calque_2" data-name="Calque 2"><g id="Calque_1-2" data-name="Calque 1"><path class="cls-1" d="M128.11,70.52v-41h13.26v3.8a12.66,12.66,0,0,1,4-3.55,10.32,10.32,0,0,1,4.86-1.16,10,10,0,0,1,8.35,4.22q3.18,4.23,3.17,11.26,0,6.67-3.25,10.88a10.32,10.32,0,0,1-13.2,3,11.65,11.65,0,0,1-3.9-3.7c.11.68.19,1.44.25,2.26s.08,1.73.08,2.73V70.52ZM145,48.06a3.23,3.23,0,0,0,2.57-1.15,4.45,4.45,0,0,0,1-3,4.5,4.5,0,0,0-1-3.05,3.45,3.45,0,0,0-5.16,0,4.55,4.55,0,0,0-1,3.05,4.49,4.49,0,0,0,1,3A3.23,3.23,0,0,0,145,48.06Z"/><path class="cls-2" d="M181.31,19.7a6.24,6.24,0,0,1-2,4.89,7.83,7.83,0,0,1-5.45,1.81,8,8,0,0,1-5.51-1.82,6.21,6.21,0,0,1-2-4.88,6,6,0,0,1,2-4.8,8.17,8.17,0,0,1,5.54-1.76,8,8,0,0,1,5.48,1.76A6.07,6.07,0,0,1,181.31,19.7ZM166.85,57.25V28.62h13.9V57.25Z"/><path class="cls-1" d="M183,57.25l11.52-14.81L183.81,28.62H199.4l1.88,4.18a15.21,15.21,0,0,1,.59,1.44,12.13,12.13,0,0,1,.38,1.28,9.68,9.68,0,0,1,.77-2.16c.11-.24.2-.43.25-.56l1.86-4.18h15.73L210.64,42.44l11.68,14.81h-16.5L203.55,53A9.5,9.5,0,0,1,203,51.7c-.17-.47-.32-1-.45-1.43a11.72,11.72,0,0,1-.41,1.57,7.56,7.56,0,0,1-.55,1.23l-2.39,4.18Z"/><path class="cls-3" d="M229.76,15.36h13.62V28.68c0,1.16,0,2.15-.06,3s-.12,1.5-.21,2.08A11.84,11.84,0,0,1,247,30a9.77,9.77,0,0,1,4.88-1.23,10.07,10.07,0,0,1,8.3,4.21q3.27,4.2,3.27,10.88,0,7-3.18,11.24a10,10,0,0,1-8.39,4.24A10.17,10.17,0,0,1,246.75,58a12.45,12.45,0,0,1-4.11-4v4.21H229.76ZM251.14,44a4.45,4.45,0,0,0-1-3A3.51,3.51,0,0,0,245,41a4.4,4.4,0,0,0-1,3,4.66,4.66,0,0,0,1,3.08,3.39,3.39,0,0,0,5.16,0A4.62,4.62,0,0,0,251.14,44Z"/><path class="cls-3" d="M288.34,58.33V54A14.88,14.88,0,0,1,284,58.1a9.86,9.86,0,0,1-5,1.31,10,10,0,0,1-8.26-4.23,17.32,17.32,0,0,1-3.29-10.91q0-7,3.2-11.23A10,10,0,0,1,279,28.79a10.13,10.13,0,0,1,4.83,1.15,12.5,12.5,0,0,1,4,3.55V29.7h13.32V58.33Zm-7.06-15.17a4.3,4.3,0,0,0,1,3,3.58,3.58,0,0,0,5.19,0,4.31,4.31,0,0,0,1-3,4.43,4.43,0,0,0-1-3,3.49,3.49,0,0,0-5.17,0A4.46,4.46,0,0,0,281.28,43.16Z"/><path class="cls-3" d="M309.52,58.06V40h-4V29.42h4V20h13.9v9.47h4V40h-4V58.06Z"/><path class="cls-3" d="M333.86,58.06V40h-4V29.42h4V20h13.9v9.47h4V40h-4V58.06Z"/><path class="cls-3" d="M356.25,58.28V15.36h13.91V58.28Z"/><path class="cls-3" d="M409.27,46.29l-19.74,0v.44a5.42,5.42,0,0,0,.79,3.25,2.77,2.77,0,0,0,2.39,1.07,2.64,2.64,0,0,0,1.69-.57,3.8,3.8,0,0,0,1.14-1.65l12.87.86a13.54,13.54,0,0,1-5.81,7.17,19.05,19.05,0,0,1-10.11,2.52,18.57,18.57,0,0,1-6.22-1,16.26,16.26,0,0,1-5.19-2.95,15.56,15.56,0,0,1-4-5.18,14.55,14.55,0,0,1,0-12.39,15.47,15.47,0,0,1,3.95-5.13,16,16,0,0,1,5.18-3,19.06,19.06,0,0,1,6.23-1,18.07,18.07,0,0,1,8.25,1.84A16.13,16.13,0,0,1,406.83,36a13.29,13.29,0,0,1,1.87,4,17,17,0,0,1,.63,4.75c0,.44,0,.77,0,1S409.29,46.12,409.27,46.29ZM389.39,39l6.28,0a3.78,3.78,0,0,0-.84-2.49,3,3,0,0,0-2.26-.8,2.85,2.85,0,0,0-2.14.84A4.23,4.23,0,0,0,389.39,39Z"/><path class="cls-3" d="M102.52,16l-.62-.93a6.19,6.19,0,0,0-1.4-1.49l-2.22-1.68a8.05,8.05,0,0,0-2.44-1.29l-.91-.3A8.4,8.4,0,0,0,91.34,10l-54,6V12.75a.45.45,0,0,0-.48-.45l-11.74.81a.46.46,0,0,0-.42.45v4l-2.49.91a6.52,6.52,0,0,0-2.07,1.24l-1.21,1.09a6.21,6.21,0,0,0-1.73,2.63l-.56,1.71a7.78,7.78,0,0,0-.42,2.54v34a12,12,0,0,0,.61,3.76,6.33,6.33,0,0,0,1.8,2.77,12.65,12.65,0,0,0,3,2l1.86.86a6.83,6.83,0,0,0,2.46.63L58.25,73.8,54.67,88.6,75.88,76l17.41.45a6.87,6.87,0,0,0,3.53-.86,11,11,0,0,0,3-2.35L100.87,72a8.8,8.8,0,0,0,.87-1.14l.82-1.29a7.13,7.13,0,0,0,1.1-3.81V19.82A6.77,6.77,0,0,0,102.52,16ZM94,63.4a6.18,6.18,0,0,1-1.47,4,2.81,2.81,0,0,1-.53.45,5.2,5.2,0,0,1-2.91.7L26.78,65.44a6.89,6.89,0,0,1-4.28-1.78h0l-.12-.29a9.21,9.21,0,0,1-.71-3.54V26.91a2.73,2.73,0,0,1,1.71-2.52l.77-.31h0l63.39-6.49c.23,0,.44,0,.67,0a7.18,7.18,0,0,1,2.49.58,9.62,9.62,0,0,1,3,2.3,1.14,1.14,0,0,1,.29.79Z"/><path class="cls-3" d="M98.51,9.92h4.31a9,9,0,0,1,3.82.85l1.24.58A7.92,7.92,0,0,1,111,14l.57.81a10.65,10.65,0,0,1,1.88,6V65.45a8.88,8.88,0,0,1-2,5.55l-1.46,1.8A9,9,0,0,1,107.49,75l-.52.29a14.47,14.47,0,0,1-7.1,1.86H97.51l4.1-1.66a10.61,10.61,0,0,0,3.6-2.43l.75-.78a8.3,8.3,0,0,0,2.18-4.12l.5-2.43a9,9,0,0,0,.18-1.8l-.16-41.84a10.17,10.17,0,0,0-1-4.37l-1-2.07a5.84,5.84,0,0,0-.84-1.31l-.93-1.11a7,7,0,0,0-3-2.09Z"/><rect class="cls-1" x="24.61" y="27.96" width="10.81" height="5.07" rx="1.37"/><path class="cls-4" d="M53.91,26a17.49,17.49,0,0,0-10.44,3.44,2.21,2.21,0,0,1,.48.15c2,.81,2.84,3.41,1.87,5.8s-3.39,3.67-5.4,2.85a3.64,3.64,0,0,1-2.15-2.7A17.59,17.59,0,1,0,53.91,26ZM50.32,40.38a2.13,2.13,0,0,1-2.76,1.11,2.41,2.41,0,0,1,2.34-4.05A2.13,2.13,0,0,1,50.32,40.38Z"/><path class="cls-3" d="M77.85,43.62A18.85,18.85,0,0,1,59,62.48a17.76,17.76,0,0,1-2.54-.18,18.85,18.85,0,0,0,0-37.36A17.76,17.76,0,0,1,59,24.76,18.85,18.85,0,0,1,77.85,43.62Z"/><path class="cls-1" d="M12.91,15.73c-.75,1.49-3.34.92-7.74-.52C1.42,14-.6,10.77.16,9.28s4.68-2,7.74.52C11.17,12.45,13.67,14.24,12.91,15.73Z"/><path class="cls-1" d="M11.08,24.65C11,25.91,9,26.22,5.46,26.41c-3,.17-5.3-1.55-5.18-2.81s2.77-2.68,5.62-1.76C8.94,22.81,11.2,23.39,11.08,24.65Z"/><path class="cls-1" d="M19.86,8C19,8.94,17.14,8,14,6c-2.69-1.7-3.72-4.54-2.89-5.5S15,0,17,2.47C19.05,5.14,20.68,7,19.86,8Z"/></g></g></svg>