<svg xmlns="http://www.w3.org/2000/svg" viewBox="0 0 113.48 88.6"><defs><style>.cls-1{fill:#13293d;}.cls-2{fill:#fac748;}.cls-3{fill:#13263d;}</style></defs><title>Fichier 2</title><g id="Calque_2" data-name="Calque 2"><g id="Calque_1-2" data-name="Calque 1"><path class="cls-1" d="M102.52,16l-.62-.93a6.19,6.19,0,0,0-1.4-1.49l-2.22-1.68a8.05,8.05,0,0,0-2.44-1.29l-.91-.3A8.4,8.4,0,0,0,91.34,10l-54,6V12.75a.45.45,0,0,0-.48-.45l-11.74.81a.46.46,0,0,0-.42.45v4l-2.49.91a6.52,6.52,0,0,0-2.07,1.24l-1.21,1.09a6.21,6.21,0,0,0-1.73,2.63l-.56,1.71a7.78,7.78,0,0,0-.42,2.54v34a12,12,0,0,0,.61,3.76,6.33,6.33,0,0,0,1.8,2.77,12.65,12.65,0,0,0,3,2l1.86.86a6.83,6.83,0,0,0,2.46.63L58.25,73.8,54.67,88.6,75.88,76l17.41.45a6.87,6.87,0,0,0,3.53-.86,11,11,0,0,0,3-2.35L100.87,72a8.8,8.8,0,0,0,.87-1.14l.82-1.29a7.13,7.13,0,0,0,1.1-3.81V19.82A6.77,6.77,0,0,0,102.52,16ZM94,63.4a6.18,6.18,0,0,1-1.47,4,2.81,2.81,0,0,1-.53.45,5.2,5.2,0,0,1-2.91.7L26.78,65.44a6.89,6.89,0,0,1-4.28-1.78h0l-.12-.29a9.21,9.21,0,0,1-.71-3.54V26.91a2.73,2.73,0,0,1,1.71-2.52l.77-.31h0l63.39-6.49c.23,0,.44,0,.67,0a7.18,7.18,0,0,1,2.49.58,9.62,9.62,0,0,1,3,2.3,1.14,1.14,0,0,1,.29.79Z"/><path class="cls-1" d="M98.51,9.92h4.31a9,9,0,0,1,3.82.85l1.24.58A7.92,7.92,0,0,1,111,14l.57.81a10.65,10.65,0,0,1,1.88,6V65.45a8.88,8.88,0,0,1-2,5.55l-1.46,1.8A9,9,0,0,1,107.49,75l-.52.29a14.47,14.47,0,0,1-7.1,1.86H97.51l4.1-1.66a10.61,10.61,0,0,0,3.6-2.43l.75-.78a8.3,8.3,0,0,0,2.18-4.12l.5-2.43a9,9,0,0,0,.18-1.8l-.16-41.84a10.17,10.17,0,0,0-1-4.37l-1-2.07a5.84,5.84,0,0,0-.84-1.31l-.93-1.11a7,7,0,0,0-3-2.09Z"/><rect class="cls-2" x="24.61" y="27.96" width="10.81" height="5.07" rx="1.37"/><path class="cls-3" d="M53.91,26a17.49,17.49,0,0,0-10.44,3.44,2.21,2.21,0,0,1,.48.15c2,.81,2.84,3.41,1.87,5.8s-3.39,3.67-5.4,2.85a3.64,3.64,0,0,1-2.15-2.7A17.59,17.59,0,1,0,53.91,26ZM50.32,40.38a2.13,2.13,0,0,1-2.76,1.11,2.41,2.41,0,0,1,2.34-4.05A2.13,2.13,0,0,1,50.32,40.38Z"/><path class="cls-1" d="M77.85,43.62A18.85,18.85,0,0,1,59,62.48a17.76,17.76,0,0,1-2.54-.18,18.85,18.85,0,0,0,0-37.36A17.76,17.76,0,0,1,59,24.76,18.85,18.85,0,0,1,77.85,43.62Z"/><path class="cls-2" d="M12.91,15.73c-.75,1.49-3.34.92-7.74-.52C1.42,14-.6,10.77.16,9.28s4.68-2,7.74.52C11.17,12.45,13.67,14.24,12.91,15.73Z"/><path class="cls-2" d="M11.08,24.65C11,25.91,9,26.22,5.46,26.41c-3,.17-5.3-1.55-5.18-2.81s2.77-2.68,5.62-1.76C8.94,22.81,11.2,23.39,11.08,24.65Z"/><path class="cls-2" d="M19.86,8C19,8.94,17.14,8,14,6c-2.69-1.7-3.72-4.54-2.89-5.5S15,0,17,2.47C19.05,5.14,20.68,7,19.86,8Z"/></g></g></svg>